<svg width="55" height="64" viewBox="0 0 55 64" fill="none" xmlns="http://www.w3.org/2000/svg">
<path d="M39.419 34.7527V43.3171C44.4717 44.6645 48.0506 53.768 48.0506 58.686V59.9492H42.299C41.964 59.9492 41.6427 59.8161 41.4058 59.5792C41.1689 59.3423 41.0359 59.021 41.0359 58.686C41.0359 58.351 41.1689 58.0297 41.4058 57.7928C41.6427 57.5559 41.964 57.4228 42.299 57.4228H45.4401C44.8674 52.7321 41.4232 45.633 38.1559 45.633C34.8885 45.633 31.419 52.69 30.8716 57.4228H34.0632C34.3982 57.4228 34.7195 57.5559 34.9564 57.7928C35.1933 58.0297 35.3264 58.351 35.3264 58.686C35.3264 59.021 35.1933 59.3423 34.9564 59.5792C34.7195 59.8161 34.3982 59.9492 34.0632 59.9492H28.2611V58.686C28.2611 53.768 31.8316 44.6645 36.8927 43.3171V33.8179C34.4767 33.0682 31.9613 32.6878 29.4316 32.6895H25.2211C21.659 32.6885 18.1372 33.4434 14.8884 34.9043V48.5973C15.964 48.9022 16.8929 49.5858 17.5039 50.522C18.1149 51.4582 18.3667 52.5838 18.2128 53.6911C18.0589 54.7984 17.5097 55.8126 16.6665 56.5467C15.8234 57.2808 14.7432 57.6851 13.6253 57.6851C12.5074 57.6851 11.4272 57.2808 10.5841 56.5467C9.74091 55.8126 9.19172 54.7984 9.03781 53.6911C8.8839 52.5838 9.13567 51.4582 9.74665 50.522C10.3576 49.5858 11.2866 48.9022 12.3621 48.5973V36.2096C8.59442 38.4397 5.47286 41.6132 3.3051 45.4172C1.13734 49.2212 -0.00178035 53.5245 5.82424e-06 57.9028C-0.00110103 58.7031 0.155564 59.4957 0.46104 60.2354C0.766517 60.9751 1.21481 61.6473 1.78029 62.2136C2.34576 62.7798 3.01732 63.2291 3.75655 63.5356C4.49578 63.8421 5.28818 63.9998 6.08844 63.9998H48.5643C50.179 63.9998 51.7277 63.3584 52.8695 62.2165C54.0113 61.0747 54.6527 59.526 54.6527 57.9112C54.6535 52.9849 53.2112 48.1663 50.5039 44.0506C47.7966 39.9349 43.9429 36.7025 39.419 34.7527Z" fill="white"/>
<path d="M27.326 27.3187C34.8696 27.3187 40.9849 21.2032 40.9849 13.6593C40.9849 6.1155 34.8696 0 27.326 0C19.7823 0 13.667 6.1155 13.667 13.6593C13.667 21.2032 19.7823 27.3187 27.326 27.3187Z" fill="white"/>
<path d="M13.6224 55.1599C14.7851 55.1599 15.7276 54.2173 15.7276 53.0545C15.7276 51.8918 14.7851 50.9492 13.6224 50.9492C12.4596 50.9492 11.5171 51.8918 11.5171 53.0545C11.5171 54.2173 12.4596 55.1599 13.6224 55.1599Z" fill="white"/>
</svg>
